<mxfile host="app.diagrams.net" modified="2020-10-19T06:17:14.340Z" agent="5.0 (Windows NT 10.0; Win64; x64) AppleWebKit/537.36 (KHTML, like Gecko) Chrome/85.0.4183.121 Safari/537.36" etag="Fh3ZhuTf14d6mRKgFJzP" version="13.8.0" type="github">
  <diagram id="gtcpW_9B4Ljv5le7QHwO" name="第 1 页">
    <mxGraphModel dx="1038" dy="531" grid="1" gridSize="10" guides="1" tooltips="1" connect="1" arrows="1" fold="1" page="1" pageScale="1" pageWidth="827" pageHeight="1169" math="0" shadow="0">
      <root>
        <mxCell id="0" />
        <mxCell id="1" parent="0" />
        <mxCell id="jalM-cUsNtH_Ebb4tUXf-15" value="" style="edgeStyle=orthogonalEdgeStyle;rounded=0;orthogonalLoop=1;jettySize=auto;html=1;" edge="1" parent="1" source="jalM-cUsNtH_Ebb4tUXf-2" target="jalM-cUsNtH_Ebb4tUXf-10">
          <mxGeometry relative="1" as="geometry" />
        </mxCell>
        <mxCell id="jalM-cUsNtH_Ebb4tUXf-2" value="开始创建商品" style="rounded=1;whiteSpace=wrap;html=1;" vertex="1" parent="1">
          <mxGeometry x="65" y="40" width="110" height="40" as="geometry" />
        </mxCell>
        <mxCell id="jalM-cUsNtH_Ebb4tUXf-14" value="" style="edgeStyle=orthogonalEdgeStyle;rounded=0;orthogonalLoop=1;jettySize=auto;html=1;" edge="1" parent="1" source="jalM-cUsNtH_Ebb4tUXf-10" target="jalM-cUsNtH_Ebb4tUXf-13">
          <mxGeometry relative="1" as="geometry" />
        </mxCell>
        <mxCell id="jalM-cUsNtH_Ebb4tUXf-22" value="" style="edgeStyle=orthogonalEdgeStyle;rounded=0;orthogonalLoop=1;jettySize=auto;html=1;" edge="1" parent="1" source="jalM-cUsNtH_Ebb4tUXf-10" target="jalM-cUsNtH_Ebb4tUXf-21">
          <mxGeometry relative="1" as="geometry" />
        </mxCell>
        <mxCell id="jalM-cUsNtH_Ebb4tUXf-10" value="save product" style="rounded=0;whiteSpace=wrap;html=1;" vertex="1" parent="1">
          <mxGeometry x="60" y="130" width="120" height="60" as="geometry" />
        </mxCell>
        <mxCell id="jalM-cUsNtH_Ebb4tUXf-17" value="" style="edgeStyle=orthogonalEdgeStyle;rounded=0;orthogonalLoop=1;jettySize=auto;html=1;" edge="1" parent="1" source="jalM-cUsNtH_Ebb4tUXf-13" target="jalM-cUsNtH_Ebb4tUXf-16">
          <mxGeometry relative="1" as="geometry" />
        </mxCell>
        <mxCell id="jalM-cUsNtH_Ebb4tUXf-26" value="" style="edgeStyle=orthogonalEdgeStyle;rounded=0;orthogonalLoop=1;jettySize=auto;html=1;" edge="1" parent="1" source="jalM-cUsNtH_Ebb4tUXf-13" target="jalM-cUsNtH_Ebb4tUXf-25">
          <mxGeometry relative="1" as="geometry" />
        </mxCell>
        <mxCell id="jalM-cUsNtH_Ebb4tUXf-13" value="save material" style="rounded=0;whiteSpace=wrap;html=1;" vertex="1" parent="1">
          <mxGeometry x="60" y="230" width="120" height="60" as="geometry" />
        </mxCell>
        <mxCell id="jalM-cUsNtH_Ebb4tUXf-34" value="" style="edgeStyle=orthogonalEdgeStyle;rounded=0;orthogonalLoop=1;jettySize=auto;html=1;" edge="1" parent="1" source="jalM-cUsNtH_Ebb4tUXf-16" target="jalM-cUsNtH_Ebb4tUXf-33">
          <mxGeometry relative="1" as="geometry" />
        </mxCell>
        <mxCell id="jalM-cUsNtH_Ebb4tUXf-16" value="save product sale&lt;br&gt;" style="whiteSpace=wrap;html=1;rounded=0;" vertex="1" parent="1">
          <mxGeometry x="60" y="330" width="120" height="60" as="geometry" />
        </mxCell>
        <mxCell id="jalM-cUsNtH_Ebb4tUXf-23" style="edgeStyle=orthogonalEdgeStyle;rounded=0;orthogonalLoop=1;jettySize=auto;html=1;entryX=1;entryY=0.25;entryDx=0;entryDy=0;" edge="1" parent="1" source="jalM-cUsNtH_Ebb4tUXf-21" target="jalM-cUsNtH_Ebb4tUXf-13">
          <mxGeometry relative="1" as="geometry">
            <Array as="points">
              <mxPoint x="300" y="245" />
            </Array>
          </mxGeometry>
        </mxCell>
        <mxCell id="jalM-cUsNtH_Ebb4tUXf-32" value="填充" style="edgeLabel;html=1;align=center;verticalAlign=middle;resizable=0;points=[];" vertex="1" connectable="0" parent="jalM-cUsNtH_Ebb4tUXf-23">
          <mxGeometry x="0.168" y="1" relative="1" as="geometry">
            <mxPoint as="offset" />
          </mxGeometry>
        </mxCell>
        <mxCell id="jalM-cUsNtH_Ebb4tUXf-21" value="取得productId&lt;br&gt;" style="rounded=0;whiteSpace=wrap;html=1;" vertex="1" parent="1">
          <mxGeometry x="240" y="130" width="120" height="60" as="geometry" />
        </mxCell>
        <mxCell id="jalM-cUsNtH_Ebb4tUXf-29" value="" style="edgeStyle=orthogonalEdgeStyle;rounded=0;orthogonalLoop=1;jettySize=auto;html=1;" edge="1" parent="1" source="jalM-cUsNtH_Ebb4tUXf-25" target="jalM-cUsNtH_Ebb4tUXf-28">
          <mxGeometry relative="1" as="geometry" />
        </mxCell>
        <mxCell id="jalM-cUsNtH_Ebb4tUXf-25" value="取得materialId" style="rounded=0;whiteSpace=wrap;html=1;" vertex="1" parent="1">
          <mxGeometry x="330" y="230" width="120" height="60" as="geometry" />
        </mxCell>
        <mxCell id="jalM-cUsNtH_Ebb4tUXf-30" style="edgeStyle=orthogonalEdgeStyle;rounded=0;orthogonalLoop=1;jettySize=auto;html=1;entryX=1;entryY=0.5;entryDx=0;entryDy=0;" edge="1" parent="1" source="jalM-cUsNtH_Ebb4tUXf-28" target="jalM-cUsNtH_Ebb4tUXf-16">
          <mxGeometry relative="1" as="geometry" />
        </mxCell>
        <mxCell id="jalM-cUsNtH_Ebb4tUXf-31" value="填充" style="edgeLabel;html=1;align=center;verticalAlign=middle;resizable=0;points=[];" vertex="1" connectable="0" parent="jalM-cUsNtH_Ebb4tUXf-30">
          <mxGeometry x="-0.123" y="1" relative="1" as="geometry">
            <mxPoint as="offset" />
          </mxGeometry>
        </mxCell>
        <mxCell id="jalM-cUsNtH_Ebb4tUXf-28" value="&lt;span&gt;spec是否相同&lt;/span&gt;" style="rhombus;whiteSpace=wrap;html=1;" vertex="1" parent="1">
          <mxGeometry x="335" y="320" width="110" height="80" as="geometry" />
        </mxCell>
        <mxCell id="jalM-cUsNtH_Ebb4tUXf-38" value="" style="edgeStyle=orthogonalEdgeStyle;rounded=0;orthogonalLoop=1;jettySize=auto;html=1;" edge="1" parent="1" source="jalM-cUsNtH_Ebb4tUXf-33" target="jalM-cUsNtH_Ebb4tUXf-37">
          <mxGeometry relative="1" as="geometry" />
        </mxCell>
        <mxCell id="jalM-cUsNtH_Ebb4tUXf-39" value="是" style="edgeLabel;html=1;align=center;verticalAlign=middle;resizable=0;points=[];" vertex="1" connectable="0" parent="jalM-cUsNtH_Ebb4tUXf-38">
          <mxGeometry x="-0.2756" y="-2" relative="1" as="geometry">
            <mxPoint as="offset" />
          </mxGeometry>
        </mxCell>
        <mxCell id="jalM-cUsNtH_Ebb4tUXf-42" style="edgeStyle=orthogonalEdgeStyle;rounded=0;orthogonalLoop=1;jettySize=auto;html=1;" edge="1" parent="1" source="jalM-cUsNtH_Ebb4tUXf-33" target="jalM-cUsNtH_Ebb4tUXf-41">
          <mxGeometry relative="1" as="geometry" />
        </mxCell>
        <mxCell id="jalM-cUsNtH_Ebb4tUXf-43" value="否" style="edgeLabel;html=1;align=center;verticalAlign=middle;resizable=0;points=[];" vertex="1" connectable="0" parent="jalM-cUsNtH_Ebb4tUXf-42">
          <mxGeometry x="-0.2032" y="2" relative="1" as="geometry">
            <mxPoint as="offset" />
          </mxGeometry>
        </mxCell>
        <mxCell id="jalM-cUsNtH_Ebb4tUXf-33" value="materialId是否全填充" style="rhombus;whiteSpace=wrap;html=1;rounded=0;" vertex="1" parent="1">
          <mxGeometry x="55" y="430" width="130" height="80" as="geometry" />
        </mxCell>
        <mxCell id="jalM-cUsNtH_Ebb4tUXf-37" value="结束创建商品" style="rounded=1;whiteSpace=wrap;html=1;" vertex="1" parent="1">
          <mxGeometry x="60" y="554.5" width="120" height="60" as="geometry" />
        </mxCell>
        <mxCell id="jalM-cUsNtH_Ebb4tUXf-41" value="回滚&lt;br&gt;报错" style="rounded=0;whiteSpace=wrap;html=1;" vertex="1" parent="1">
          <mxGeometry x="250" y="440" width="120" height="60" as="geometry" />
        </mxCell>
      </root>
    </mxGraphModel>
  </diagram>
</mxfile>
